<?xml version="1.0" encoding="utf-8"?>
<!-- Generator: Adobe Illustrator 17.0.1, SVG Export Plug-In . SVG Version: 6.00 Build 0)  -->
<!DOCTYPE svg PUBLIC "-//W3C//DTD SVG 1.1//EN" "http://www.w3.org/Graphics/SVG/1.1/DTD/svg11.dtd">
<svg version="1.1"
	 id="svg48" xmlns:dc="http://purl.org/dc/elements/1.1/" xmlns:cc="http://creativecommons.org/ns#" xmlns:rdf="http://www.w3.org/1999/02/22-rdf-syntax-ns#" xmlns:svg="http://www.w3.org/2000/svg"
	 xmlns="http://www.w3.org/2000/svg" xmlns:xlink="http://www.w3.org/1999/xlink" x="0px" y="0px" width="361px" height="150.722px"
	 viewBox="117.138 150.722 361 150.722" enable-background="new 117.138 150.722 361 150.722" xml:space="preserve">
<g>
	<path id="path2" fill="#009EE0" stroke="#009EE0" stroke-width="4.252" stroke-linecap="round" stroke-linejoin="round" d="
		M128.532,206.997l169.105-44.657l169.105,44.657v84.111H128.532L128.532,206.997z"/>
	<path id="path4" fill="#FFFFFF" d="M249.025,238.875h-17.109v-11.406c0-3.322-0.18-5.385-0.54-6.215
		c-0.36-0.817-1.163-1.232-2.395-1.232c-1.384,0-2.27,0.498-2.644,1.495c-0.374,1.011-0.568,3.17-0.568,6.492v30.481
		c0,3.198,0.194,5.274,0.568,6.257c0.374,0.969,1.218,1.454,2.519,1.454c1.26,0,2.09-0.485,2.478-1.467
		c0.388-0.969,0.581-3.267,0.581-6.88v-8.264h17.109v2.561c0,6.811-0.484,11.642-1.44,14.479c-0.955,2.852-3.087,5.343-6.367,7.489
		c-3.294,2.146-7.337,3.211-12.154,3.211c-4.997,0-9.122-0.9-12.375-2.713c-3.239-1.813-5.399-4.319-6.451-7.53
		c-1.052-3.211-1.578-8.029-1.578-14.465v-19.186c0-4.734,0.166-8.278,0.484-10.645c0.332-2.367,1.287-4.651,2.907-6.838
		c1.606-2.187,3.835-3.917,6.686-5.177c2.852-1.26,6.132-1.883,9.842-1.883c5.025,0,9.178,0.969,12.458,2.921
		c3.267,1.938,5.412,4.36,6.451,7.267c1.024,2.907,1.537,7.42,1.537,13.552L249.025,238.875z M258.93,210.221h17.109l0.083,27.74
		c3.17-0.083,4.803-1.869,4.914-5.357l0.318-12.818c0.111-4.72,1.024-7.918,2.741-9.565h15.78c-1.523,1.592-2.27,4.9-2.242,9.898
		l0.083,11.268c0.055,6.811-3.779,10.7-11.517,11.642c7.738,0.941,11.572,4.886,11.517,11.808l-0.083,10.451
		c-0.028,4.983,0.72,8.527,2.242,10.631h-15.78c-1.827-1.647-2.741-4.845-2.741-9.579v-12.804c0-1.633-0.484-2.935-1.453-3.917
		c-0.983-0.983-2.243-1.495-3.779-1.523l-0.083,27.823H258.93V210.221z M341.633,210.221v13.123h-10.05v52.574h-17.109v-52.574
		h-10.133v-13.123H341.633z M386.615,258.075c0,6.34-1.551,10.977-4.665,13.926c-3.101,2.949-7.876,4.416-14.341,4.416
		c-6.852,0-11.794-1.44-14.784-4.305c-3.004-2.866-4.499-7.766-4.499-14.715v-5.15h16.362v10.064c0,2.644,0.941,3.973,2.81,3.973
		c1.343,0,2.146-0.512,2.395-1.537c0.235-1.038,0.36-3.544,0.36-7.516v-10.88h-9.468v-9.551h9.468v-11.212
		c0-2.118-0.138-3.585-0.401-4.402c-0.277-0.831-0.997-1.246-2.159-1.246c-2.007,0-3.004,1.301-3.004,3.904v7.558h-16.362v-5.565
		c0-6.132,1.398-10.34,4.208-12.624c2.81-2.27,7.697-3.405,14.632-3.405c6.409,0,11.24,1.384,14.521,4.139
		c3.281,2.755,4.928,6.797,4.928,12.126V258.075z"/>
	<g id="Layer1001">
		<g id="Layer1002">
			<path id="path6" fill="#FFFFFF" d="M139.623,233.544h15.475v15.475h-15.475V233.544z"/>
			<path id="path8" fill="#FFFFFF" d="M162.132,233.544h15.475v15.475h-15.475V233.544z"/>
			<path id="path10" fill="#FFFFFF" d="M184.641,233.544h15.475v15.475h-15.475V233.544z"/>
		</g>
		<g id="Layer1003">
			<path id="path13" fill="#FFFFFF" d="M395.16,233.544h15.474v15.475H395.16V233.544z"/>
			<path id="path15" fill="#FFFFFF" d="M417.669,233.544h15.475v15.475h-15.475V233.544z"/>
			<path id="path17" fill="#FFFFFF" d="M440.178,233.544h15.475v15.475h-15.475V233.544z"/>
		</g>
	</g>
</g>
</svg>
